# xmcd CD database file
#
# Track frame offsets:
#	150
#	20993
#	44763
#	62144
#	72720
#	90223
#	107181
#	126850
#	142851
#	160073
#	177227
#
# Disc length: 2613 seconds
#
# Revision: 0
# Processed by: cddbd v1.5.2PL0 Copyright (c) Steve Scherf et al.
# Submitted via: CDex 1.50
#
DISCID=9e0a330b
DTITLE=Okean Elzy - Vnochi
DYEAR=2008
DGENRE=Jazz
TTITLE0=Okean Elzy - Oj popered mene gory syni
TTITLE1=Okean Elzy - Ne jdy
TTITLE2=Okean Elzy - Buty z toboju
TTITLE3=Okean Elzy - Kolyskova
TTITLE4=Okean Elzy - Pizno vnochi
TTITLE5=Okean Elzy - Tam de lito
TTITLE6=Okean Elzy - Dzvony
TTITLE7=Okean Elzy - Ne opuskaj svoji ochi
TTITLE8=Okean Elzy - Chajka
TTITLE9=Okean Elzy - Taka jak ty
TTITLE10=Okean Elzy - Wherever You Are bonus
EXTD=YEAR: 2008
EXTT0=
EXTT1=
EXTT2=
EXTT3=
EXTT4=
EXTT5=
EXTT6=
EXTT7=
EXTT8=
EXTT9=
EXTT10=
PLAYORDER=
